#!OML:ASF E:/inclinewalkrobotboard/Project1/Captureday1/Session1/subject1.ASF
:FULLY-SPECIFIED
:DEGREES
113
root 0 0 0 1.1080204496557986 -3.7401549629979707 1.802839511511554
lowerback 11.995270496196833 0.8620090434836567 -0.07694925048539297
upperback -4.18258474983677 1.0910306134190666 -0.5396404196181823
thorax -11.297411020004038 0.5003880404671035 -0.7746334741249201
lowerneck -5.922284313022027 1.4701714165196835 4.520568794807867
upperneck 18.041110740547296 2.9155284701117825 -8.266396010103538
head 6.615937961950643 1.0617481381770153 -3.1943144977151223
rclavicle -1.2283742646075992E-15 3.966718101812518E-16
rhumerus 19.641580619724756 14.047572969427852 -47.808063157017955
rradius 72.07070479780901
rwrist 27.218725606163183
rhand -34.883293774143254 -57.52890271977499
rfingers 7.125020000000043
rthumb -8.024808503809542 -87.30842638293751
lclavicle 1.0817170908011264E-15 -2.7188884634351234E-15
lhumerus 20.599174421824756 -12.313207960523162 45.61718442218829
lradius 69.53475679880772
lwrist -22.203907426905072
lhand -44.75686406062729 -70.15142950600558
lfingers 7.125020000000015
lthumb -17.564687005534783 -41.044808596907586
rfemur -25.190918563472614 -2.1624284908948765 16.896491666946943
rtibia 54.19822705681859
rfoot -28.22672123576478 -16.764421595361352
rtoes -17.855131153362098
lfemur -27.44271933946455 2.482268480205727 -18.26487870896688
ltibia 53.66144370089874
lfoot -31.88572045370215 -3.2530599559858224
ltoes -19.564016261016565
114
root 0 0 0 1.1079879041161023 -3.7401696754358498 1.8028353638951433
lowerback 11.995298057668458 0.8620099260731036 -0.07693621434431067
upperback -4.182546172443661 1.09103509430284 -0.5396322234985163
thorax -11.297384228374822 0.5003895505162599 -0.7746335211146964
lowerneck -5.922183736096747 1.4701433786978217 4.520604022278307
upperneck 18.040967970332886 2.9154910381413464 -8.266474221297925
head 6.6158747388176415 1.0617315364519215 -3.1943475664157726
rclavicle -1.2338711303872844E-15 3.991148364698722E-16
rhumerus 19.641349281722697 14.04737355734811 -47.808167446163274
rradius 72.07055619637273
rwrist 27.218714525342854
rhand -34.88332220096624 -57.52889034852558
rfingers 7.125020000000043
rthumb -8.024825560965123 -87.30844273227513
lclavicle 1.0735710979309464E-15 -2.715710824792396E-15
lhumerus 20.599415621270964 -12.313567840416939 45.61704025518849
lradius 69.53484430989639
lwrist -22.20384984596269
lhand -44.75679140998118 -70.15031258538042
lfingers 7.125020000000015
lthumb -17.564599176204133 -41.04370002415942
rfemur -25.191178650179037 -2.162450112053761 16.896467857149425
rtibia 54.198147065125966
rfoot -28.226824162246412 -16.764542113954427
rtoes -17.854860647491993
lfemur -27.442757821913542 2.482337949042413 -18.264947916277784
ltibia 53.66169162273795
lfoot -31.885875466284265 -3.253003246786856
ltoes -19.563658711194563
115
root 0 0 0 1.1079516555952065 -3.740190903251793 1.8028297040815178
lowerback 11.995320783624132 0.8620097347657906 -0.0769213471467163
upperback -4.18250755904242 1.0910385151415354 -0.5396226119824666
thorax -11.297354408725006 0.5003904868499149 -0.774632813492762
lowerneck -5.922067603614526 1.4701143499735458 4.5206406050696275
upperneck 18.040822776305223 2.91545304005311 -8.26655687433495
head 6.615808084977331 1.0617147831135907 -3.1943824310158533
rclavicle -1.235086772307045E-15 3.9920986334371805E-16
rhumerus 19.64136524846154 14.047394715799783 -47.80817356735524
rradius 72.07058964132266
rwrist 27.218736811987277
rhand -34.883376840603894 -57.52903228716305
rfingers 7.125020000000043
rthumb -8.02488217384035 -87.30858831905492
lclavicle 1.0716263363277386E-15 -2.715636310017012E-15
lhumerus 20.599495493492924 -12.313594866288785 45.616989521739214
lradius 69.53488539322981
lwrist -22.20387331925345
lhand -44.756815410404315 -70.15031366874342
lfingers 7.125020000000015
lthumb -17.564612035100186 -41.043698074211996
rfemur -25.191156197952175 -2.1624443356353655 16.89648557078793
rtibia 54.19812345226878
rfoot -28.226906115450042 -16.764580965155666
rtoes -17.854860490168132
lfemur -27.44282737561296 2.482322407111234 -18.264936327027627
ltibia 53.661658280482406
lfoot -31.885987663624583 -3.2529253988905733
ltoes -19.563718475069987
116
root 0 0 0 1.1079135728368021 -3.7403622394607305 1.8027819378273302
lowerback 11.99507514858545 0.8619732055772193 -0.07693072587968261
upperback -4.182661949103101 1.0909845655767358 -0.5396035718811737
thorax -11.297383694107186 0.5003662219407379 -0.774594383298996
lowerneck -5.922115782888119 1.4702439987833615 4.5205601584884345
upperneck 18.041409214680524 2.9156574221784295 -8.266383871161631
head 6.616001881463388 1.061805189798878 -3.1943010772768403
rclavicle -1.2505391226193952E-15 4.177061975619893E-16
rhumerus 19.64205478129434 14.047385949890389 -47.80788231795672
rradius 72.07166834767598
rwrist 27.219673249051034
rhand -34.88493473749161 -57.53255670052779
rfingers 7.125020000000043
rthumb -8.026336976947183 -87.31217397630279
lclavicle 1.0372595309604432E-15 -2.6922305593017018E-15
lhumerus 20.599739728173375 -12.312206844349305 45.61962521765521
lradius 69.53455160891644
lwrist -22.20311477624061
lhand -44.75895924599508 -70.16131859932322
lfingers 7.125020000000015
lthumb -17.56652568045849 -41.055246975923005
rfemur -25.190050113447782 -2.1624732172848304 16.89561409423706
rtibia 54.196567197166495
rfoot -28.2253335815339 -16.76384918822017
rtoes -17.856335725035436
lfemur -27.44118995534769 2.4816940091526867 -18.264030146621877
ltibia 53.659058290004715
lfoot -31.882804059036022 -3.2525837759812664
ltoes -19.567225682503246
117
root 0 0 0 1.1080277852758038 -3.7401461697593223 1.8028422603828613
lowerback 11.995271960721688 0.8620096931204914 -0.07695242672524544
upperback -4.182588110818358 1.0910308347704483 -0.5396426934858718
thorax -11.297415685538672 0.5003882391373938 -0.7746341855676866
lowerneck -5.922303133524698 1.4701737458759325 4.520564284120969
upperneck 18.041122826457112 2.9155306828311307 -8.266385367507679
head 6.615945144442023 1.0617491342564058 -3.19431019753821
rclavicle -1.2284164982296283E-15 3.966712001220678E-16
rhumerus 19.641562067740217 14.047555601211467 -47.80807536854
rradius 72.07069470390954
rwrist 27.218726830031386
rhand -34.88332441979909 -57.528938952732865
rfingers 7.125020000000043
rthumb -8.024838449184456 -87.30846381824173
lclavicle 1.0816555302361403E-15 -2.7189013903896644E-15
lhumerus 20.599165835405856 -12.313188363184228 45.617203019953266
lradius 69.53474485880307
lwrist -22.203905199032793
lhand -44.756875296023225 -70.15150001762562
lfingers 7.125020000000015
lthumb -17.564697471666555 -41.04487960210717
rfemur -25.190921239701453 -2.162428925850617 16.89649021722472
rtibia 54.19822519031836
rfoot -28.22671743904105 -16.76442238396534
rtoes -17.855130796076395
lfemur -27.442728211301045 2.4822629884270864 -18.264880938769156
ltibia 53.66144488046341
lfoot -31.88571916621079 -3.2530646376969625
ltoes -19.563979926313962
118
root 0 0 0 1.1079922513769713 -3.740164377238737 1.8028370222897503
lowerback 11.995299032145246 0.862010323668043 -0.0769380979098164
upperback -4.182548090576172 1.0910352438342086 -0.5396335798581722
thorax -11.297386974414271 0.5003896761323133 -0.7746339570095822
lowerneck -5.9221948112527585 1.4701446977927506 4.520601393753665
upperneck 18.040974836861526 2.915492253644012 -8.266468010192304
head 6.615878887853434 1.0617320851392371 -3.1943450618942784
rclavicle -1.2339129224030964E-15 3.991238345124207E-16
rhumerus 19.641337505893034 14.047362304337287 -47.80817471287453
rradius 72.0705501032708
rwrist 27.218716026556624
rhand -34.88334209059826 -57.52891498380261
rfingers 7.125020000000043
rthumb -8.024844978606671 -87.30846816966363
lclavicle 1.0735083018809902E-15 -2.7157062419790623E-15
lhumerus 20.59941101951887 -12.313555436042853 45.61705259986052
lradius 69.53483707347404
lwrist -22.203848255667385
lhand -44.75679928017447 -70.15035984146513
lfingers 7.125020000000015
lthumb -17.56460651600315 -41.04374769377597
rfemur -25.191180049613163 -2.1624503536322304 16.8964670828289
rtibia 54.19814577882484
rfoot -28.226822008127193 -16.764542645227962
rtoes -17.854860428088543
lfemur -27.44276349396178 2.4823343529285964 -18.26494912085934
ltibia 53.66169210329509
lfoot -31.885874831120557 -3.2530059578816783
ltoes -19.563636703067765
119
root 0 0 0 1.107954286949735 -3.740187662592153 1.8028307184972738
lowerback 11.995321421278604 0.8620099818560399 -0.07692248528812393
upperback -4.182508683784931 1.0910386153304106 -0.5396234358921426
thorax -11.297356058529754 0.5003905671205128 -0.7746330842686231
lowerneck -5.9220742719845365 1.4701151188490063 4.520639040518555
upperneck 18.040826792104784 2.9154537304698587 -8.266553167463723
head 6.615810545696868 1.0617150951928802 -3.194380939141684
rclavicle -1.2351107566139587E-15 3.992120452726879E-16
rhumerus 19.64135779938315 14.047387635742275 -47.808178168120094
rradius 72.07058568613425
rwrist 27.21873765781565
rhand -34.88338918462858 -57.52904735189752
rfingers 7.125020000000043
rthumb -8.024894233697081 -87.30860390217094
lclavicle 1.0715897787055441E-15 -2.715637769886055E-15
lhumerus 20.599492501815572 -12.313587068508962 45.616997054632286
lradius 69.53488079060446
lwrist -22.203872418117157
lhand -44.75682023069824 -70.150342826161
lfingers 7.125020000000015
lthumb -17.564616517095075 -41.04372745353325
rfemur -25.191157042030614 -2.162444490359385 16.896485114383058
rtibia 54.19812264888641
rfoot -28.226904771287302 -16.764581291254867
rtoes -17.854860399899728
lfemur -27.44283097334936 2.4823201187310455 -18.26493705797007
ltibia 53.66165866639501
lfoot -31.885987287598898 -3.2529271333235665
ltoes -19.563704596047266
120
root 0 0 0 1.1079189036311148 -3.7402265523793745 1.8028185938782078
lowerback 11.995319522884849 0.8620074837130325 -0.07690715202405365
upperback -4.182488416267538 1.0910385045252549 -0.5396126818005054
thorax -11.297332064466149 0.5003900252715952 -0.7746301813825405
lowerneck -5.921979814365834 1.4701007314879913 4.52066378305782
upperneck 18.040753140252594 2.91543823485622 -8.266610370699505
head 6.615770379485541 1.0617081498394243 -3.194404341875314
rclavicle -1.2346615055674836E-15 3.987276567957243E-16
rhumerus 19.641423207248934 14.04745840992584 -47.80814401466924
rradius 72.0706035367872
rwrist 27.218708964618905
rhand -34.883240322653215 -57.52882674044429
rfingers 7.125020000000043
rthumb -8.024750202064315 -87.30838142622206
lclavicle 1.072243929065468E-15 -2.716258699503953E-15
lhumerus 20.59951280467877 -12.313676329536712 45.61687835645227
lradius 69.53492322229465
lwrist -22.203898755897924
lhand -44.75675001247877 -70.14993410422335
lfingers 7.125020000000015
lthumb -17.56454885268142 -41.04330941731884
rfemur -25.191158667816897 -2.1624449009537474 16.896488825787767
rtibia 54.198126429681224
rfoot -28.226923001478674 -16.7645805392454
rtoes -17.85486266489605
lfemur -27.442802384829296 2.482338011934549 -18.264931094107578
ltibia 53.66164149210114
lfoot -31.8860068438621 -3.2529105243675245
ltoes -19.563839397032304
